<svg width="16" height="16" viewBox="0 0 16 16" fill="none" xmlns="http://www.w3.org/2000/svg">
<path fill-rule="evenodd" clip-rule="evenodd" d="M8 1C8.55228 1 9 1.44772 9 2V14C9 14.5523 8.55228 15 8 15C7.44772 15 7 14.5523 7 14V2C7 1.44772 7.44772 1 8 1Z" fill="black"/>
<path fill-rule="evenodd" clip-rule="evenodd" d="M15 8C15 8.55228 14.5523 9 14 9L2 9C1.44771 9 1 8.55228 1 8C1 7.44771 1.44771 7 2 7L14 7C14.5523 7 15 7.44772 15 8Z" fill="black"/>
<path fill-rule="evenodd" clip-rule="evenodd" d="M3.29289 3.29289C3.68342 2.90237 4.31658 2.90237 4.70711 3.29289L12.7071 11.2929C13.0976 11.6834 13.0976 12.3166 12.7071 12.7071C12.3166 13.0976 11.6834 13.0976 11.2929 12.7071L3.29289 4.70711C2.90237 4.31658 2.90237 3.68342 3.29289 3.29289Z" fill="black"/>
<path fill-rule="evenodd" clip-rule="evenodd" d="M12.7071 3.29289C13.0976 3.68342 13.0976 4.31658 12.7071 4.70711L4.70711 12.7071C4.31658 13.0976 3.68342 13.0976 3.29289 12.7071C2.90237 12.3166 2.90237 11.6834 3.29289 11.2929L11.2929 3.29289C11.6834 2.90237 12.3166 2.90237 12.7071 3.29289Z" fill="black"/>
</svg>
